<svg width="130" height="115" viewBox="0 0 130 115" fill="none" xmlns="http://www.w3.org/2000/svg">
<g clip-path="url(#clip0_168_4)">
<path d="M65 69.0205C71.3993 69.0205 76.5869 63.8626 76.5869 57.5C76.5869 51.1374 71.3993 45.9795 65 45.9795C58.6007 45.9795 53.413 51.1374 53.413 57.5C53.413 63.8626 58.6007 69.0205 65 69.0205Z" fill="white"/>
<path d="M65 81.103C99.3377 81.103 127.174 70.5356 127.174 57.5C127.174 44.4644 99.3377 33.897 65 33.897C30.6623 33.897 2.82609 44.4644 2.82609 57.5C2.82609 70.5356 30.6623 81.103 65 81.103Z" stroke="white"/>
<path d="M44.4413 69.3015C61.6102 98.8683 84.7327 117.553 96.087 111.035C107.441 104.518 102.728 75.2653 85.5587 45.6985C68.3898 16.1317 45.2673 -2.55326 33.913 3.96454C22.5588 10.4823 27.2725 39.7347 44.4413 69.3015Z" stroke="white"/>
<path d="M44.4413 45.6984C27.2725 75.2653 22.5588 104.518 33.913 111.035C45.2673 117.553 68.3898 98.8683 85.5587 69.3015C102.728 39.7346 107.441 10.4823 96.087 3.96448C84.7327 -2.55331 61.6102 16.1316 44.4413 45.6984Z" stroke="white"/>
</g>
<defs>
<clipPath id="clip0_168_4">
<rect width="130" height="115" fill="white"/>
</clipPath>
</defs>
</svg>
