<?xml version="1.0" encoding="UTF-8"?>
<!DOCTYPE svg PUBLIC "-//W3C//DTD SVG 1.1//EN" "http://www.w3.org/Graphics/SVG/1.1/DTD/svg11.dtd">
<!-- Creator: CorelDRAW 2020 (64-Bit) -->
<svg xmlns="http://www.w3.org/2000/svg" xml:space="preserve" width="30mm" height="30mm" version="1.1" style="shape-rendering:geometricPrecision; text-rendering:geometricPrecision; image-rendering:optimizeQuality; fill-rule:evenodd; clip-rule:evenodd"
viewBox="0 0 3000 3000"
 xmlns:xlink="http://www.w3.org/1999/xlink"
 xmlns:xodm="http://www.corel.com/coreldraw/odm/2003">
 <defs>
  <style type="text/css">
   <![CDATA[
    .fil1 {fill:#FEFEFE;fill-rule:nonzero}
    .fil0 {fill:#2C4355;fill-rule:nonzero}
   ]]>
  </style>
 </defs>
 <g id="Слой_x0020_1">
  <metadata id="CorelCorpID_0Corel-Layer"/>
  <g id="_1711707182256">
   <path class="fil0" d="M1492.94 7.77c828.04,0 1499.3,671.26 1499.3,1499.3 0,828.04 -671.26,1499.31 -1499.3,1499.31 -828.04,0 -1499.31,-671.27 -1499.31,-1499.31 0,-828.04 671.27,-1499.3 1499.31,-1499.3z"/>
   <path class="fil1" d="M2222.48 687.22l-1459.09 0c-49.88,0 -90.31,40.42 -90.31,90.31l0 1459.09c0,49.88 40.43,90.31 90.31,90.31l785.64 0 0 -635 -214.84 0 0 -246.95 213.78 0 0 -182.74c0,-211.66 129.12,-327.02 317.5,-327.02 63.75,-0.28 127.46,3 190.85,9.88l0 221.19 -130.88 0c-103.01,0 -122.77,49.03 -122.77,120.65l0 158.04 245.19 0 -32.11 246.95 -211.66 0 0 635 418.04 0c49.88,0 90.31,-40.43 90.31,-90.31l0 -1459.09c0,-49.75 -40.22,-90.1 -89.96,-90.31z"/>
  </g>
 </g>
</svg>
