<?xml version="1.0" encoding="UTF-8"?>
<!DOCTYPE svg PUBLIC "-//W3C//DTD SVG 1.1//EN" "http://www.w3.org/Graphics/SVG/1.1/DTD/svg11.dtd">
<!-- Creator: CorelDRAW 2020 (64-Bit) -->
<svg xmlns="http://www.w3.org/2000/svg" xml:space="preserve" width="30mm" height="30mm" version="1.1" style="shape-rendering:geometricPrecision; text-rendering:geometricPrecision; image-rendering:optimizeQuality; fill-rule:evenodd; clip-rule:evenodd"
viewBox="0 0 3000 3000"
 xmlns:xlink="http://www.w3.org/1999/xlink"
 xmlns:xodm="http://www.corel.com/coreldraw/odm/2003">
 <defs>
  <style type="text/css">
   <![CDATA[
    .fil1 {fill:#FEFEFE;fill-rule:nonzero}
    .fil0 {fill:#2C4355;fill-rule:nonzero}
   ]]>
  </style>
 </defs>
 <g id="Слой_x0020_1">
  <metadata id="CorelCorpID_0Corel-Layer"/>
  <g id="_1711705278976">
   <path class="fil0" d="M1492.92 7.76c828.04,0 1499.31,671.27 1499.31,1499.31 0,828.04 -671.27,1499.3 -1499.31,1499.3 -828.04,0 -1499.3,-671.26 -1499.3,-1499.3 0,-828.04 671.26,-1499.31 1499.3,-1499.31z"/>
   <path class="fil1" d="M674.83 1219.91l348.19 0 0 1119.71 -348.19 0 0 -1119.71zm174.27 -556.33c111.45,0 201.79,90.34 201.79,201.78 0,111.45 -90.34,201.79 -201.79,201.79 -111.44,0 -201.79,-90.34 -201.79,-201.79l0 0c0,-111.44 90.35,-201.78 201.79,-201.78z"/>
   <path class="fil1" d="M1241.39 1219.91l333.38 0 0 153.1 6.35 0c68.05,-116.27 194.52,-185.66 329.14,-180.62 352.78,0 417.33,231.78 417.33,533.05l0 614.18 -347.83 0 0 -544.33c0,-129.82 -2.12,-297.04 -180.63,-297.04 -178.5,0 -208.84,141.11 -208.84,287.51l0 553.86 -347.49 0 -1.41 -1119.71z"/>
  </g>
 </g>
</svg>
