<?xml version="1.0" encoding="UTF-8"?>
<!DOCTYPE svg PUBLIC "-//W3C//DTD SVG 1.1//EN" "http://www.w3.org/Graphics/SVG/1.1/DTD/svg11.dtd">
<!-- Creator: CorelDRAW 2020 (64-Bit) -->
<svg xmlns="http://www.w3.org/2000/svg" xml:space="preserve" width="30mm" height="30mm" version="1.1" style="shape-rendering:geometricPrecision; text-rendering:geometricPrecision; image-rendering:optimizeQuality; fill-rule:evenodd; clip-rule:evenodd"
viewBox="0 0 3000 3000"
 xmlns:xlink="http://www.w3.org/1999/xlink"
 xmlns:xodm="http://www.corel.com/coreldraw/odm/2003">
 <defs>
  <style type="text/css">
   <![CDATA[
    .fil0 {fill:#0088cc;fill-rule:nonzero}
    .fil1 {fill:white;fill-rule:nonzero}
   ]]>
  </style>
 </defs>
 <g id="Слой_x0020_1">
  <metadata id="CorelCorpID_0Corel-Layer"/>
  <g id="_1711702229392">
   <path class="fil0" d="M1492.93 7.77c-828.04,0 -1499.3,671.32 -1499.3,1499.35 0,827.81 671.26,1499.25 1499.3,1499.25 828.03,0 1499.3,-671.44 1499.3,-1499.25 0,-828.03 -671.27,-1499.35 -1499.3,-1499.35z"/>
   <path class="fil1" d="M2222.76 898.1c-5.73,-16.88 -12.57,-21.33 -23.25,-25.55 -23.37,-8.66 -62.95,4.45 -62.95,4.45 0,0 -1401.24,503.74 -1481.29,559.49 -17.23,11.99 -23.01,19.1 -25.88,27.32 -13.83,39.54 29.28,57.08 29.28,57.08l361.17 117.72c0,0 13.46,2 18.25,-1.11 82.17,-51.97 826.64,-521.96 869.58,-537.73 6.77,-2 11.79,0.23 10.46,4.89 -17.19,60.41 -663.81,635.01 -663.81,635.01 0,0 -2.46,3.11 -4.02,6.67l-0.84 -0.45 -33.7 358.26c0,0 -14.12,109.73 95.62,0 77.44,-77.51 152.36,-142.37 189.85,-173.69 124.19,85.74 257.84,180.58 315.52,230.11 28.97,24.88 53.2,28.87 73.14,28.21 54.75,-2 70.04,-62.19 70.04,-62.19 0,0 255.35,-1027.71 263.87,-1165.41 0.85,-13.55 2,-22 2.09,-31.32 0.16,-12.88 -1.04,-25.76 -3.13,-31.76z"/>
  </g>
 </g>
</svg>
