<?xml version="1.0" encoding="UTF-8"?>
<!DOCTYPE svg PUBLIC "-//W3C//DTD SVG 1.1//EN" "http://www.w3.org/Graphics/SVG/1.1/DTD/svg11.dtd">
<!-- Creator: CorelDRAW 2020 (64-Bit) -->
<svg xmlns="http://www.w3.org/2000/svg" xml:space="preserve" width="40px" height="40px" version="1.1" style="shape-rendering:geometricPrecision; text-rendering:geometricPrecision; image-rendering:optimizeQuality; fill-rule:evenodd; clip-rule:evenodd"
viewBox="0 0 7936.7 7936.7"
 xmlns:xlink="http://www.w3.org/1999/xlink"
 xmlns:xodm="http://www.corel.com/coreldraw/odm/2003">
 <defs>
  <style type="text/css">
   <![CDATA[
    .fil0 {fill:#2C4355}
   ]]>
  </style>
 </defs>
 <g id="Слой_x0020_1">
  <metadata id="CorelCorpID_0Corel-Layer"/>
  <path class="fil0" d="M3921.01 1907.17c558.39,0 910.65,472.62 959.14,963.34 37.74,381.94 -50.38,784.17 -296.14,1048.49 -90.93,97.79 -151.81,132.84 -259.9,205.22 3.81,171.28 39.92,195 121.6,250.49 231.68,157.4 463.64,198.97 740.02,407.27 290.68,219.08 487.22,547.43 487.22,1047.66l-3410.86 0c0,-351.82 95.62,-618.84 285.55,-861.74 104.3,-133.39 283.12,-247.68 428.29,-331.4 148.32,-85.53 337.8,-141.27 513.36,-261.83 129.53,-88.96 98.6,-85 137.14,-250.45 -156.09,-41.68 -373.84,-302.83 -449.64,-465.09 -252.81,-541.15 -154.62,-1286.87 390.41,-1640.65 73.78,-47.89 236.91,-111.31 353.81,-111.31zm-3922.48 1906.97c0,606.61 29.4,928.6 226.56,1494.37 92.39,265.13 176.69,416.83 305.83,655.41 29.95,55.32 57.54,92.23 88.49,144.07 127.27,213.11 368.24,501.47 538.03,671.27 160.88,160.87 329.8,299.42 515.4,430.34 232.96,164.33 345.25,228.99 604.53,356.71 367.21,180.88 1004.44,371.86 1550.62,371.86l21.01 0c437.65,-0.1 647.16,-4.03 1089.26,-114.53 133.44,-33.36 243.96,-68.6 368.59,-112.03 508.6,-177.23 820.65,-396.73 1218.84,-703.64 795.24,-612.95 1410.82,-1855.8 1410.82,-2899.26 0,-598.55 -32.87,-923.02 -226.56,-1478.86 -188.59,-541.21 -532.65,-1071.04 -932.35,-1470.75 -676.33,-676.32 -1699.31,-1158.91 -2670.55,-1158.91 -597.54,0 -923.64,33.08 -1478.86,226.56 -785.12,273.59 -1405.22,779.54 -1896.72,1436.61 -399.14,533.59 -732.94,1413.98 -732.94,2150.78z"/>
 </g>
</svg>
