<?xml version="1.0" encoding="UTF-8"?>
<!DOCTYPE svg PUBLIC "-//W3C//DTD SVG 1.1//EN" "http://www.w3.org/Graphics/SVG/1.1/DTD/svg11.dtd">
<!-- Creator: CorelDRAW 2020 (64-Bit) -->
<svg xmlns="http://www.w3.org/2000/svg" xml:space="preserve" width="40px" height="40px" version="1.1" style="shape-rendering:geometricPrecision; text-rendering:geometricPrecision; image-rendering:optimizeQuality; fill-rule:evenodd; clip-rule:evenodd"
viewBox="0 0 7936.7 7936.7"
 xmlns:xlink="http://www.w3.org/1999/xlink"
 xmlns:xodm="http://www.corel.com/coreldraw/odm/2003">
 <defs>
  <style type="text/css">
   <![CDATA[
    .fil0 {fill:#2C4355}
   ]]>
  </style>
 </defs>
 <g id="Слой_x0020_1">
  <metadata id="CorelCorpID_0Corel-Layer"/>
  <g id="_1943959399232">
   <path class="fil0" d="M2014.34 5720.84l0 -3410.31c0,-295.06 222.8,-558.06 511.55,-558.06l2821.26 0c121.24,0 232.52,151.36 232.52,279.03l0 3952.87c0,193.64 -116.39,310.03 -310.03,310.03l-2650.75 0c-352.84,0 -604.55,-224.05 -604.55,-573.56zm2161.89 2216.71l-399.12 0c-633.14,-32.85 -1244.4,-220.82 -1814.07,-537.76 -251.43,-139.88 -608.56,-424.38 -805.16,-620.97 -160.04,-160.05 -304,-335.13 -439.15,-521.94 -186.14,-257.3 -383.72,-634.83 -493.06,-948.58 -190.13,-545.61 -226.52,-872.94 -226.52,-1463.13 0,-476.99 154.26,-1133.99 366.75,-1555.43 337.53,-669.42 812.43,-1279.56 1463.15,-1668.14l459.03 -254.04c100.23,-50.54 229.66,-101.67 340.32,-140.23 555.13,-193.44 881.18,-226.52 1478.63,-226.52 971.09,0 1993.91,482.52 2670.13,1158.73 399.64,399.64 743.64,929.4 932.21,1470.52 193.66,555.75 226.52,880.17 226.52,1478.63 0,1043.29 -615.48,2285.95 -1410.6,2898.81 -398.12,306.86 -710.13,526.32 -1218.65,703.53 -124.61,43.42 -235.11,78.65 -368.54,112 -255.9,63.96 -510.25,101.56 -761.87,114.52zm1620.46 -6185.08c107.62,0 164.5,4.61 227.1,51.93 41.57,31.42 98.43,116.1 98.43,180.6l0 4045.87c0,192.69 -167.37,263.53 -341.03,263.53 37.38,-70.64 77.51,-155.55 77.51,-263.53l0 -4030.37c0,-58.6 -5.95,-82.21 -21.5,-133.52 -10.92,-36.05 -27.41,-85.18 -40.51,-114.51z"/>
   <path class="fil0" d="M2479.38 3380.13c0,462.56 424.12,943.41 716.94,1236.24 327.68,327.67 743.84,716.94 1267.25,716.94 178.06,0 330.57,-43.06 436.59,-121.46 85.42,-63.16 240.72,-224.97 200.66,-343.8 -21.07,-62.49 -465.28,-557.84 -590.75,-557.84 -109.29,0 -275.75,209.43 -356.53,263.53 -437.28,-231.38 -681.64,-458.84 -914.59,-899.09 103.96,-155.25 263.53,-240.39 263.53,-387.53 0,-86.1 -179.65,-233.9 -267.4,-321.66 -69.29,-69.29 -227.4,-267.4 -337.16,-267.4 -89.74,0 -271.62,171.53 -309.8,232.75 -63.64,102.02 -108.74,284.39 -108.74,449.32z"/>
  </g>
 </g>
</svg>
