<?xml version="1.0" encoding="UTF-8"?>
<!DOCTYPE svg PUBLIC "-//W3C//DTD SVG 1.1//EN" "http://www.w3.org/Graphics/SVG/1.1/DTD/svg11.dtd">
<!-- Creator: CorelDRAW 2020 (64-Bit) -->
<svg xmlns="http://www.w3.org/2000/svg" xml:space="preserve" width="40px" height="40px" version="1.1" style="shape-rendering:geometricPrecision; text-rendering:geometricPrecision; image-rendering:optimizeQuality; fill-rule:evenodd; clip-rule:evenodd"
viewBox="0 0 7936.7 7936.7"
 xmlns:xlink="http://www.w3.org/1999/xlink"
 xmlns:xodm="http://www.corel.com/coreldraw/odm/2003">
 <defs>
  <style type="text/css">
   <![CDATA[
    .fil0 {fill:#2C4355}
   ]]>
  </style>
 </defs>
 <g id="Слой_x0020_1">
  <metadata id="CorelCorpID_0Corel-Layer"/>
  <g id="_1943944737232">
   <path class="fil0" d="M2789.23 5519.57c0,286.64 1020.68,356.59 1240.31,356.59 325.71,0 801.75,-62.14 1069.41,-232.91 54.02,-34.46 63.31,-51.35 93.38,-108.18 -112.21,-212.06 -599.01,-305.76 -837.21,-325.58 28.46,-42.51 173.35,-144.14 232.55,-232.56 245.16,20.4 868.22,208.82 868.22,558.14 0,261.85 -323.04,407.07 -532.76,475 -512.14,165.87 -1216.57,168.66 -1746.35,36.67 -196.9,-49.06 -457.53,-150.65 -569.44,-283.27 -368.59,-436.8 425.77,-771.03 740.03,-771.03 2.42,0 221.93,201.19 232.55,217.05 -12.21,5.86 -327.44,60.73 -444,98.63 -89.73,29.18 -346.69,122.22 -346.69,211.45zm-31.01 -2372.09l0 -201.56c0,-541.52 574.75,-1116.27 1116.28,-1116.27l186.04 0c535.18,0 1116.28,555.95 1116.28,1147.28 0,414.36 -89.7,659.4 -307.04,995.29 -104.68,161.77 -278.46,406.66 -409.89,535.84 -137.04,134.7 -83.73,118.11 -286.25,287.4 -93.71,78.33 -67.12,88.39 -206.12,181.47 -95.9,-64.22 -116.55,-102.75 -197.79,-174.3 -404.92,-356.58 -1011.51,-1115.67 -1011.51,-1655.15zm-2759.69 697.67c0,590.28 36.4,917.66 226.56,1463.36 92.39,265.13 176.69,416.83 305.83,655.41 29.95,55.32 57.54,92.23 88.49,144.07 127.27,213.11 368.24,501.47 538.03,671.27 160.88,160.87 329.8,299.42 515.4,430.34 232.96,164.33 345.25,228.99 604.53,356.71 367.21,180.88 1004.44,371.86 1550.62,371.86l21.01 0c437.65,-0.1 647.16,-4.03 1089.26,-114.53 133.44,-33.36 243.96,-68.6 368.59,-112.03 508.6,-177.23 820.65,-396.73 1218.84,-703.64 795.24,-612.95 1410.82,-1855.8 1410.82,-2899.26 0,-598.55 -32.87,-923.02 -226.56,-1478.86 -188.59,-541.21 -532.65,-1071.04 -932.35,-1470.75 -676.33,-676.32 -1699.31,-1158.91 -2670.55,-1158.91 -597.54,0 -923.64,33.08 -1478.86,226.56 -110.67,38.57 -240.12,89.7 -340.37,140.25l-459.11 254.07c-651.16,388.86 -1125.6,998.52 -1463.37,1668.41 -212.53,421.5 -366.81,1078.6 -366.81,1555.67z"/>
   <path class="fil0" d="M3331.86 2914.92c0,187.54 81.29,345.27 174.18,445.97 246.49,267.23 654.02,274.49 919.44,27.49 410.11,-381.64 131.81,-1109.12 -442.46,-1109.12 -353.48,0 -651.16,302.97 -651.16,635.66z"/>
  </g>
 </g>
</svg>
