<?xml version="1.0" encoding="UTF-8"?>
<!DOCTYPE svg PUBLIC "-//W3C//DTD SVG 1.1//EN" "http://www.w3.org/Graphics/SVG/1.1/DTD/svg11.dtd">
<!-- Creator: CorelDRAW 2020 (64-Bit) -->
<svg xmlns="http://www.w3.org/2000/svg" xml:space="preserve" width="40px" height="40px" version="1.1" style="shape-rendering:geometricPrecision; text-rendering:geometricPrecision; image-rendering:optimizeQuality; fill-rule:evenodd; clip-rule:evenodd"
viewBox="0 0 7936.7 7936.7"
 xmlns:xlink="http://www.w3.org/1999/xlink"
 xmlns:xodm="http://www.corel.com/coreldraw/odm/2003">
 <defs>
  <style type="text/css">
   <![CDATA[
    .fil0 {fill:#2C4355}
   ]]>
  </style>
 </defs>
 <g id="Слой_x0020_1">
  <metadata id="CorelCorpID_0Corel-Layer"/>
  <g id="_1943962804912">
   <path class="fil0" d="M1408.11 5210.98l0 -2480.21c0,-320.63 201.95,-558.05 480.54,-558.05l4154.37 0c148.83,0 276.24,78.42 348.04,163.5 91.29,108.18 132.5,203.31 132.5,394.55l0 2480.21c0,320.89 -201.39,558.05 -480.54,558.05l-4154.37 0c-276.56,0 -480.54,-234.54 -480.54,-558.05zm2432.57 -5208.46l273.74 0c281.11,9.51 561.48,48.25 834.43,117.58 353.41,89.77 717.11,240.69 1019.75,421.89 289.1,173.11 443.52,289.4 682.65,510.94 215.66,199.8 265.83,250.41 463.5,497.59 461.31,576.84 819.43,1485.56 819.43,2280.85 0,747.32 -72.55,1155.09 -372.23,1828.95 -86.95,195.53 -319.44,575.37 -461.24,747.86 -344.63,419.24 -667.76,719.02 -1141.74,997.46 -101.44,59.58 -204.69,119.15 -314.51,166.03 -236.75,101.08 -434.05,184.56 -708.05,253.04 -442.02,110.48 -651.49,114.42 -1089.07,114.51l-21.01 0c-546.1,0 -1183.22,-190.95 -1550.38,-371.8 -405.29,-199.63 -544.6,-309.41 -874.45,-567.17 -142.11,-111.05 -250.56,-237.21 -361.24,-351.82l-168.31 -188.22c-21.17,-26.94 -34.97,-48.08 -52.73,-71.29 -21.25,-27.79 -32.97,-37.94 -55.72,-68.29 -120.1,-160.22 -320.94,-489.54 -398.46,-671.13 -297.26,-696.28 -367.56,-1046.07 -367.56,-1818.13 0,-546.1 190.95,-1183.22 371.81,-1550.38 108.72,-220.72 220.94,-412.04 356.65,-604.43 35.58,-50.44 63.95,-93.04 105.02,-142.99 243.93,-296.74 412.66,-470.21 714.52,-711.61 634.36,-507.3 1458.39,-791.5 2295.2,-819.44z"/>
   <path class="fil0" d="M1888.65 5366l4154.37 0c95.14,0 77.78,-149.3 77.53,-248.01l-0.02 -2325.22c-80.13,21.39 -1749.15,1363.82 -1963.77,1539.54 -137.33,112.44 -228.04,128.02 -373.45,7.11l-1434.06 -1139.17c-79.82,-59.2 -457.89,-388.79 -538.1,-407.48l-0.01 2309.71c-0.14,101.77 -20.34,263.52 77.51,263.52z"/>
   <path class="fil0" d="M3965.83 3970.87c30.92,-20.7 68.99,-54.32 103.64,-82.37 40.71,-32.96 72.11,-59.02 111.25,-90.28 36.04,-28.78 68.46,-49.75 105.83,-80.18 40.6,-33.07 72.12,-59.03 111.29,-90.23l1319.65 -1052.06 -3503.31 0 1639.58 1305.68c34.9,28.56 79.66,67.74 112.07,89.44z"/>
  </g>
 </g>
</svg>
